<svg width="25" height="25" viewBox="0 0 25 25" fill="none" xmlns="http://www.w3.org/2000/svg">
<path fill-rule="evenodd" clip-rule="evenodd" d="M3.93359 18.2301C3.8592 18.3045 3.8002 18.3928 3.75995 18.49C3.71969 18.5872 3.69897 18.6913 3.69897 18.7965C3.69897 18.9017 3.71969 19.0059 3.75995 19.1031C3.8002 19.2003 3.8592 19.2886 3.93359 19.3629C4.00797 19.4373 4.09627 19.4963 4.19345 19.5366C4.29063 19.5768 4.3948 19.5975 4.49999 19.5975C4.60518 19.5975 4.70934 19.5768 4.80652 19.5366C4.9037 19.4963 4.992 19.4373 5.06639 19.3629L11.4664 12.9629C11.5409 12.8886 11.6 12.8003 11.6403 12.7032C11.6807 12.606 11.7014 12.5018 11.7014 12.3965C11.7014 12.2913 11.6807 12.1871 11.6403 12.0899C11.6 11.9927 11.5409 11.9044 11.4664 11.8301L5.06639 5.43014C4.992 5.35576 4.9037 5.29675 4.80652 5.2565C4.70934 5.21624 4.60518 5.19553 4.49999 5.19553C4.3948 5.19553 4.29063 5.21624 4.19345 5.2565C4.09627 5.29675 4.00797 5.35576 3.93359 5.43014C3.8592 5.50452 3.8002 5.59282 3.75995 5.69C3.71969 5.78719 3.69897 5.89135 3.69897 5.99654C3.69897 6.10173 3.71969 6.20589 3.75995 6.30307C3.8002 6.40025 3.8592 6.48856 3.93359 6.56294L9.76879 12.3965L3.93359 18.2301ZM13.5336 18.2301C13.3834 18.3804 13.299 18.5841 13.299 18.7965C13.299 19.009 13.3834 19.2127 13.5336 19.3629C13.6838 19.5132 13.8875 19.5975 14.1 19.5975C14.3124 19.5975 14.5162 19.5132 14.6664 19.3629L21.0664 12.9629C21.1409 12.8886 21.2 12.8003 21.2403 12.7032C21.2807 12.606 21.3014 12.5018 21.3014 12.3965C21.3014 12.2913 21.2807 12.1871 21.2403 12.0899C21.2 11.9927 21.1409 11.9044 21.0664 11.8301L14.6664 5.43014C14.5162 5.27992 14.3124 5.19553 14.1 5.19553C13.8875 5.19553 13.6838 5.27992 13.5336 5.43014C13.3834 5.58036 13.299 5.7841 13.299 5.99654C13.299 6.20898 13.3834 6.41272 13.5336 6.56294L19.3688 12.3965L13.5336 18.2301Z" fill="#424243"/>
</svg>
