<svg class="navSvg" width="current" height="current" viewBox="0 0 29 28" fill="none" xmlns="http://www.w3.org/2000/svg">
<mask id="mask0_9_1062" style="mask-type:luminance" maskUnits="userSpaceOnUse" x="2" y="2" width="24" height="24">
<path fill-rule="evenodd" clip-rule="evenodd" d="M2.83325 2.33301H25.5562V25.0562H2.83325V2.33301Z" fill="white"/>
</mask>
<g mask="url(#mask0_9_1062)">
<path fill-rule="evenodd" clip-rule="evenodd" d="M14.1952 4.08301C8.89501 4.08301 4.58301 8.39384 4.58301 13.694C4.58301 18.9942 8.89501 23.3062 14.1952 23.3062C19.4942 23.3062 23.8062 18.9942 23.8062 13.694C23.8062 8.39384 19.4942 4.08301 14.1952 4.08301M14.1952 25.0562C7.93017 25.0562 2.83301 19.959 2.83301 13.694C2.83301 7.42901 7.93017 2.33301 14.1952 2.33301C20.4602 2.33301 25.5562 7.42901 25.5562 13.694C25.5562 19.959 20.4602 25.0562 14.1952 25.0562" fill="#61646B"/>
</g>
<mask id="mask1_9_1062" style="mask-type:luminance" maskUnits="userSpaceOnUse" x="20" y="20" width="7" height="7">
<path fill-rule="evenodd" clip-rule="evenodd" d="M20.6133 20.6582H26.4747V26.5087H20.6133V20.6582Z" fill="white"/>
</mask>
<g mask="url(#mask1_9_1062)">
<path fill-rule="evenodd" clip-rule="evenodd" d="M25.5999 26.5087C25.3771 26.5087 25.1531 26.4236 24.9816 26.2532L20.8702 22.1536C20.5284 21.8117 20.5272 21.2576 20.8691 20.9157C21.2097 20.5716 21.7639 20.5739 22.1069 20.9134L26.2182 25.0142C26.5601 25.3561 26.5612 25.9091 26.2194 26.2509C26.0491 26.4236 25.8239 26.5087 25.5999 26.5087" fill="#61646B"/>
</g>
</svg>
