<svg class="navSvg" width="current" height="current" viewBox="0 0 29 28" fill="none" xmlns="http://www.w3.org/2000/svg">
<mask id="mask0_9_1074" style="mask-type:luminance" maskUnits="userSpaceOnUse" x="4" y="16" width="20" height="10">
<path fill-rule="evenodd" clip-rule="evenodd" d="M4.83325 16.9121H23.3131V25.5151H4.83325V16.9121Z" fill="white"/>
</mask>
<g mask="url(#mask0_9_1074)">
<path fill-rule="evenodd" clip-rule="evenodd" d="M14.0744 18.6621C9.10325 18.6621 6.58325 19.5161 6.58325 21.2019C6.58325 22.9029 9.10325 23.7651 14.0744 23.7651C19.0444 23.7651 21.5633 22.9111 21.5633 21.2253C21.5633 19.5243 19.0444 18.6621 14.0744 18.6621M14.0744 25.5151C11.7889 25.5151 4.83325 25.5151 4.83325 21.2019C4.83325 17.3566 10.1078 16.9121 14.0744 16.9121C16.3599 16.9121 23.3133 16.9121 23.3133 21.2253C23.3133 25.0706 18.0399 25.5151 14.0744 25.5151" fill="#61646B"/>
</g>
<mask id="mask1_9_1074" style="mask-type:luminance" maskUnits="userSpaceOnUse" x="7" y="2" width="14" height="13">
<path fill-rule="evenodd" clip-rule="evenodd" d="M7.87817 2.33301H20.2682V14.7214H7.87817V2.33301Z" fill="white"/>
</mask>
<g mask="url(#mask1_9_1074)">
<path fill-rule="evenodd" clip-rule="evenodd" d="M14.0744 3.99901C11.5765 3.99901 9.54421 6.03017 9.54421 8.52801C9.53604 11.0177 11.5532 13.0477 14.0405 13.057L14.0744 13.89V13.057C16.571 13.057 18.6022 11.0247 18.6022 8.52801C18.6022 6.03017 16.571 3.99901 14.0744 3.99901M14.0744 14.7218H14.037C10.628 14.7113 7.86654 11.9312 7.87821 8.52451C7.87821 5.11201 10.6572 2.33301 14.0744 2.33301C17.4904 2.33301 20.2682 5.11201 20.2682 8.52801C20.2682 11.944 17.4904 14.7218 14.0744 14.7218" fill="#61646B"/>
</g>
</svg>
