<svg width="24" height="24" viewBox="0 0 24 24" fill="none" xmlns="http://www.w3.org/2000/svg">
<path d="M12 24C10.3569 24 8.80957 23.6849 7.35793 23.0548C5.91426 22.4327 4.63809 21.5713 3.52941 20.4706C2.42871 19.3619 1.56331 18.0857 0.9332 16.6421C0.311067 15.1904 0 13.6431 0 12C0 10.3569 0.311067 8.81356 0.9332 7.36989C1.56331 5.91825 2.42871 4.64207 3.52941 3.54138C4.63011 2.4327 5.90229 1.5673 7.34596 0.945165C8.79761 0.315055 10.345 0 11.988 0C13.6311 0 15.1785 0.315055 16.6301 0.945165C18.0818 1.5673 19.3579 2.4327 20.4586 3.54138C21.5593 4.64207 22.4247 5.91825 23.0548 7.36989C23.6849 8.81356 24 10.3569 24 12C24 13.6431 23.6849 15.1904 23.0548 16.6421C22.4247 18.0857 21.5593 19.3619 20.4586 20.4706C19.3579 21.5713 18.0818 22.4327 16.6301 23.0548C15.1864 23.6849 13.6431 24 12 24ZM12 22.4566C13.4437 22.4566 14.7956 22.1854 16.0558 21.6431C17.324 21.1007 18.4367 20.3509 19.3938 19.3938C20.3589 18.4367 21.1087 17.328 21.6431 16.0678C22.1854 14.7996 22.4566 13.4437 22.4566 12C22.4566 10.5563 22.1854 9.20439 21.6431 7.94417C21.1007 6.67597 20.3509 5.56331 19.3938 4.60618C18.4367 3.64108 17.324 2.89133 16.0558 2.35693C14.7956 1.81456 13.4397 1.54337 11.988 1.54337C10.5444 1.54337 9.18843 1.81456 7.92024 2.35693C6.66002 2.89133 5.55135 3.64108 4.59422 4.60618C3.64506 5.56331 2.8993 6.67597 2.35693 7.94417C1.82253 9.20439 1.55533 10.5563 1.55533 12C1.55533 13.4437 1.82253 14.7996 2.35693 16.0678C2.8993 17.328 3.64905 18.4367 4.60618 19.3938C5.56331 20.3509 6.67198 21.1007 7.9322 21.6431C9.19242 22.1854 10.5484 22.4566 12 22.4566ZM11.7607 14.4407C11.2742 14.4407 11.0309 14.1934 11.0309 13.6989C11.0309 13.659 11.0309 13.6152 11.0309 13.5673C11.0309 13.5194 11.0309 13.4756 11.0309 13.4357C11.0309 12.8853 11.1585 12.4347 11.4138 12.0837C11.669 11.7328 12.0279 11.3978 12.4905 11.0788C13.0409 10.6959 13.4397 10.3649 13.6869 10.0857C13.9342 9.80658 14.0578 9.45962 14.0578 9.04487C14.0578 8.55833 13.8744 8.15952 13.5075 7.84845C13.1406 7.53739 12.6461 7.38185 12.0239 7.38185C11.681 7.38185 11.3699 7.44566 11.0907 7.57328C10.8195 7.7009 10.5842 7.87637 10.3848 8.0997C10.1934 8.31505 10.0538 8.55833 9.9661 8.82951L9.82253 9.06879C9.75075 9.19641 9.65902 9.29611 9.54736 9.3679C9.43569 9.43968 9.3001 9.47557 9.14058 9.47557C8.97308 9.47557 8.82154 9.41974 8.68594 9.30808C8.55833 9.19641 8.49452 9.03689 8.49452 8.82951C8.49452 8.72582 8.4985 8.6341 8.50648 8.55434C8.52243 8.4666 8.53838 8.37886 8.55434 8.29113C8.68993 7.71685 9.06481 7.21037 9.67896 6.77169C10.2931 6.333 11.0947 6.11366 12.0837 6.11366C12.7378 6.11366 13.332 6.22931 13.8664 6.46062C14.4088 6.68395 14.8395 7.01097 15.1585 7.44168C15.4855 7.86441 15.6491 8.37488 15.6491 8.97308C15.6491 9.62712 15.4816 10.1575 15.1466 10.5643C14.8116 10.9711 14.345 11.3779 13.7468 11.7846C13.3081 12.0798 12.989 12.3549 12.7896 12.6102C12.5982 12.8654 12.5025 13.1685 12.5025 13.5194C12.5025 13.5593 12.5025 13.5992 12.5025 13.6391C12.5025 13.679 12.5025 13.7228 12.5025 13.7707C12.5025 13.9541 12.4347 14.1137 12.2991 14.2493C12.1715 14.3769 11.992 14.4407 11.7607 14.4407ZM11.7368 17.8504C11.4337 17.8504 11.1745 17.7428 10.9591 17.5274C10.7438 17.3121 10.6361 17.0608 10.6361 16.7737C10.6361 16.4706 10.7438 16.2154 10.9591 16.008C11.1745 15.8006 11.4337 15.6969 11.7368 15.6969C12.0399 15.6969 12.2991 15.8006 12.5145 16.008C12.7378 16.2154 12.8495 16.4706 12.8495 16.7737C12.8495 17.0688 12.7378 17.324 12.5145 17.5394C12.2991 17.7468 12.0399 17.8504 11.7368 17.8504Z" fill="#A2A2A2"/>
</svg>
