<svg width="44" height="45" viewBox="0 0 44 45" fill="none" xmlns="http://www.w3.org/2000/svg">
<path d="M15.375 22.7441C15.375 22.5938 15.4287 22.4971 15.5361 22.4004L24.2051 14.4297C24.291 14.3438 24.3984 14.3008 24.5166 14.3008C24.7422 14.3008 24.9463 14.4834 24.9463 14.7305C24.9463 14.8486 24.9033 14.9453 24.8281 15.0205L16.417 22.7441L24.8281 30.4678C24.9033 30.543 24.9463 30.6289 24.9463 30.7578C24.9463 31.0049 24.7422 31.1768 24.5166 31.1768C24.3984 31.1768 24.291 31.1338 24.2051 31.0586L15.5361 23.0879C15.4287 22.9912 15.375 22.8838 15.375 22.7441Z" fill="#121212"/>
</svg>
