<svg width="44" height="45" viewBox="0 0 44 45" fill="none" xmlns="http://www.w3.org/2000/svg">
<path d="M12.6289 34.1201C10.7275 34.1201 9.73926 33.1318 9.73926 31.2197V14.3115C9.73926 12.4102 10.749 11.4111 12.6289 11.4111H17.8496C18.6768 11.4111 19.085 11.5615 19.6113 12.0771L26.4326 18.9199C26.959 19.457 27.0986 19.8545 27.0986 20.7139V31.2197C27.0986 33.1211 26.0996 34.1201 24.209 34.1201H12.6289ZM12.6611 33.3252H24.166C25.5732 33.3252 26.3037 32.5947 26.3037 31.1982V20.5098H19.5576C18.5586 20.5098 18.0215 20.0371 18.0215 18.9736V12.2061H12.6719C11.2646 12.2061 10.5342 12.9902 10.5342 14.333V31.1982C10.5342 32.5947 11.2646 33.3252 12.6611 33.3252ZM19.6221 19.7363H26.1104L18.7949 12.3994V18.9092C18.7949 19.5 19.0312 19.7363 19.6221 19.7363ZM18.8057 30.9941C18.8057 31.209 18.6338 31.3809 18.4189 31.3809C18.2041 31.3809 18.0322 31.209 18.0322 30.9941V25.5693L18.0645 23.3457L16.0342 25.4082L15.1426 26.3213C15.0781 26.3857 14.9707 26.4287 14.8633 26.4287C14.6484 26.4287 14.4873 26.2676 14.4873 26.0527C14.4873 25.8594 14.5947 25.7734 14.7021 25.666L18.1289 22.3037C18.2148 22.2178 18.3223 22.1748 18.4189 22.1748C18.5156 22.1748 18.6123 22.2178 18.709 22.3037L22.125 25.666C22.2432 25.7734 22.3506 25.8594 22.3506 26.0527C22.3506 26.2676 22.1787 26.4287 21.9746 26.4287C21.8672 26.4287 21.749 26.3857 21.6846 26.3213L20.8037 25.4082L18.7734 23.3457L18.8057 25.5693V30.9941Z" fill="#00838F"/>
</svg>
