<svg width="141" height="192" viewBox="0 0 141 192" fill="none" xmlns="http://www.w3.org/2000/svg">
<g filter="url(#filter0_d_1034_441)">
<rect x="12.8479" y="12.2033" width="122.468" height="174.282" rx="8" fill="#DFE5EC" shape-rendering="crispEdges"/>
<g opacity="0.5">
<mask id="path-2-outside-1_1034_441" maskUnits="userSpaceOnUse" x="55.5979" y="80.9533" width="36" height="36" fill="black">
<rect fill="white" x="55.5979" y="80.9533" width="36" height="36"/>
<path fill-rule="evenodd" clip-rule="evenodd" d="M61.3896 81.9533C58.7432 81.9533 56.5979 84.0986 56.5979 86.7449V111.662C56.5979 114.308 58.7432 116.453 61.3896 116.453H86.3062C88.9526 116.453 91.0979 114.308 91.0979 111.662V86.7449C91.0979 84.0986 88.9526 81.9533 86.3062 81.9533H61.3896ZM89.1812 105.515V86.7449C89.1812 85.1571 87.8941 83.8699 86.3062 83.8699H61.3896C59.8017 83.8699 58.5146 85.1571 58.5146 86.7449V99.7647L64.5453 93.734C64.9195 93.3597 65.5263 93.3597 65.9005 93.734L76.7229 104.556L81.7953 99.484C82.1695 99.1097 82.7763 99.1097 83.1505 99.484L89.1812 105.515ZM89.1812 108.225L82.4729 101.517L77.4005 106.589C77.0263 106.964 76.4195 106.964 76.0453 106.589L65.2229 95.7669L58.5146 102.475V111.662C58.5146 113.249 59.8017 114.537 61.3896 114.537H86.3062C87.8941 114.537 89.1812 113.249 89.1812 111.662V108.225ZM79.5979 87.7033H83.4312C84.4898 87.7033 85.3479 88.5614 85.3479 89.6199V93.4533C85.3479 94.5118 84.4898 95.3699 83.4312 95.3699H79.5979C78.5394 95.3699 77.6812 94.5118 77.6812 93.4533V89.6199C77.6812 88.5614 78.5394 87.7033 79.5979 87.7033ZM79.5979 93.4533V89.6199H83.4312V93.4533H79.5979Z"/>
</mask>
<path fill-rule="evenodd" clip-rule="evenodd" d="M61.3896 81.9533C58.7432 81.9533 56.5979 84.0986 56.5979 86.7449V111.662C56.5979 114.308 58.7432 116.453 61.3896 116.453H86.3062C88.9526 116.453 91.0979 114.308 91.0979 111.662V86.7449C91.0979 84.0986 88.9526 81.9533 86.3062 81.9533H61.3896ZM89.1812 105.515V86.7449C89.1812 85.1571 87.8941 83.8699 86.3062 83.8699H61.3896C59.8017 83.8699 58.5146 85.1571 58.5146 86.7449V99.7647L64.5453 93.734C64.9195 93.3597 65.5263 93.3597 65.9005 93.734L76.7229 104.556L81.7953 99.484C82.1695 99.1097 82.7763 99.1097 83.1505 99.484L89.1812 105.515ZM89.1812 108.225L82.4729 101.517L77.4005 106.589C77.0263 106.964 76.4195 106.964 76.0453 106.589L65.2229 95.7669L58.5146 102.475V111.662C58.5146 113.249 59.8017 114.537 61.3896 114.537H86.3062C87.8941 114.537 89.1812 113.249 89.1812 111.662V108.225ZM79.5979 87.7033H83.4312C84.4898 87.7033 85.3479 88.5614 85.3479 89.6199V93.4533C85.3479 94.5118 84.4898 95.3699 83.4312 95.3699H79.5979C78.5394 95.3699 77.6812 94.5118 77.6812 93.4533V89.6199C77.6812 88.5614 78.5394 87.7033 79.5979 87.7033ZM79.5979 93.4533V89.6199H83.4312V93.4533H79.5979Z" fill="#94A3B8"/>
<path d="M89.1812 105.515L88.9102 105.786L89.5646 106.44V105.515H89.1812ZM58.5146 99.7647H58.1312V100.69L58.7856 100.036L58.5146 99.7647ZM64.5453 93.734L64.2742 93.4629V93.4629L64.5453 93.734ZM65.9005 93.734L65.6295 94.005V94.005L65.9005 93.734ZM76.7229 104.556L76.4518 104.827L76.7229 105.098L76.994 104.827L76.7229 104.556ZM81.7953 99.484L81.5242 99.2129L81.7953 99.484ZM83.1505 99.484L83.4216 99.2129L83.1505 99.484ZM82.4729 101.517L82.744 101.246L82.4729 100.975L82.2018 101.246L82.4729 101.517ZM89.1812 108.225H89.5646V108.066L89.4523 107.954L89.1812 108.225ZM77.4005 106.589L77.6716 106.86L77.4005 106.589ZM76.0453 106.589L75.7742 106.86L76.0453 106.589ZM65.2229 95.7669L65.494 95.4958L65.2229 95.2248L64.9518 95.4958L65.2229 95.7669ZM58.5146 102.475L58.2435 102.204L58.1312 102.316V102.475H58.5146ZM79.5979 89.6199V89.2366H79.2146V89.6199H79.5979ZM79.5979 93.4533H79.2146V93.8366H79.5979V93.4533ZM83.4312 89.6199H83.8146V89.2366H83.4312V89.6199ZM83.4312 93.4533V93.8366H83.8146V93.4533H83.4312ZM56.9812 86.7449C56.9812 84.3103 58.9549 82.3366 61.3896 82.3366V81.5699C58.5315 81.5699 56.2146 83.8869 56.2146 86.7449H56.9812ZM56.9812 111.662V86.7449H56.2146V111.662H56.9812ZM61.3896 116.07C58.9549 116.07 56.9812 114.096 56.9812 111.662H56.2146C56.2146 114.52 58.5315 116.837 61.3896 116.837V116.07ZM86.3062 116.07H61.3896V116.837H86.3062V116.07ZM90.7146 111.662C90.7146 114.096 88.7409 116.07 86.3062 116.07V116.837C89.1643 116.837 91.4812 114.52 91.4812 111.662H90.7146ZM90.7146 86.7449V111.662H91.4812V86.7449H90.7146ZM86.3062 82.3366C88.7409 82.3366 90.7146 84.3103 90.7146 86.7449H91.4812C91.4812 83.8869 89.1643 81.5699 86.3062 81.5699V82.3366ZM61.3896 82.3366H86.3062V81.5699H61.3896V82.3366ZM88.7979 86.7449V105.515H89.5646V86.7449H88.7979ZM86.3062 84.2533C87.6823 84.2533 88.7979 85.3688 88.7979 86.7449H89.5646C89.5646 84.9454 88.1058 83.4866 86.3062 83.4866V84.2533ZM61.3896 84.2533H86.3062V83.4866H61.3896V84.2533ZM58.8979 86.7449C58.8979 85.3688 60.0135 84.2533 61.3896 84.2533V83.4866C59.59 83.4866 58.1312 84.9454 58.1312 86.7449H58.8979ZM58.8979 99.7647V86.7449H58.1312V99.7647H58.8979ZM64.2742 93.4629L58.2435 99.4936L58.7856 100.036L64.8163 94.005L64.2742 93.4629ZM66.1716 93.4629C65.6476 92.939 64.7982 92.939 64.2742 93.4629L64.8163 94.005C65.0409 93.7805 65.4049 93.7805 65.6295 94.005L66.1716 93.4629ZM76.994 104.285L66.1716 93.4629L65.6295 94.005L76.4518 104.827L76.994 104.285ZM81.5242 99.2129L76.4518 104.285L76.994 104.827L82.0663 99.755L81.5242 99.2129ZM83.4216 99.2129C82.8976 98.689 82.0482 98.689 81.5242 99.2129L82.0663 99.755C82.2909 99.5305 82.6549 99.5305 82.8795 99.755L83.4216 99.2129ZM89.4523 105.244L83.4216 99.2129L82.8795 99.755L88.9102 105.786L89.4523 105.244ZM82.2018 101.788L88.9102 108.496L89.4523 107.954L82.744 101.246L82.2018 101.788ZM77.6716 106.86L82.744 101.788L82.2018 101.246L77.1295 106.318L77.6716 106.86ZM75.7742 106.86C76.2982 107.384 77.1476 107.384 77.6716 106.86L77.1295 106.318C76.9049 106.543 76.5409 106.543 76.3163 106.318L75.7742 106.86ZM64.9518 96.038L75.7742 106.86L76.3163 106.318L65.494 95.4958L64.9518 96.038ZM58.7856 102.746L65.494 96.038L64.9518 95.4958L58.2435 102.204L58.7856 102.746ZM58.8979 111.662V102.475H58.1312V111.662H58.8979ZM61.3896 114.153C60.0135 114.153 58.8979 113.038 58.8979 111.662H58.1312C58.1312 113.461 59.59 114.92 61.3896 114.92V114.153ZM86.3062 114.153H61.3896V114.92H86.3062V114.153ZM88.7979 111.662C88.7979 113.038 87.6823 114.153 86.3062 114.153V114.92C88.1058 114.92 89.5646 113.461 89.5646 111.662H88.7979ZM88.7979 108.225V111.662H89.5646V108.225H88.7979ZM83.4312 87.3199H79.5979V88.0866H83.4312V87.3199ZM85.7312 89.6199C85.7312 88.3497 84.7015 87.3199 83.4312 87.3199V88.0866C84.2781 88.0866 84.9646 88.7731 84.9646 89.6199H85.7312ZM85.7312 93.4533V89.6199H84.9646V93.4533H85.7312ZM83.4312 95.7533C84.7015 95.7533 85.7312 94.7235 85.7312 93.4533H84.9646C84.9646 94.3001 84.2781 94.9866 83.4312 94.9866V95.7533ZM79.5979 95.7533H83.4312V94.9866H79.5979V95.7533ZM77.2979 93.4533C77.2979 94.7235 78.3276 95.7533 79.5979 95.7533V94.9866C78.7511 94.9866 78.0646 94.3001 78.0646 93.4533H77.2979ZM77.2979 89.6199V93.4533H78.0646V89.6199H77.2979ZM79.5979 87.3199C78.3276 87.3199 77.2979 88.3497 77.2979 89.6199H78.0646C78.0646 88.7731 78.7511 88.0866 79.5979 88.0866V87.3199ZM79.2146 89.6199V93.4533H79.9812V89.6199H79.2146ZM83.4312 89.2366H79.5979V90.0033H83.4312V89.2366ZM83.8146 93.4533V89.6199H83.0479V93.4533H83.8146ZM79.5979 93.8366H83.4312V93.0699H79.5979V93.8366Z" fill="#94A3B8" mask="url(#path-2-outside-1_1034_441)"/>
</g>
</g>
<g filter="url(#filter1_d_1034_441)">
<rect x="7.37207" y="6.72733" width="122.468" height="174.282" rx="8" fill="#DFE5EC" shape-rendering="crispEdges"/>
<g opacity="0.5">
<mask id="path-5-outside-2_1034_441" maskUnits="userSpaceOnUse" x="50.1221" y="75.4773" width="36" height="36" fill="black">
<rect fill="white" x="50.1221" y="75.4773" width="36" height="36"/>
<path fill-rule="evenodd" clip-rule="evenodd" d="M55.9137 76.4773C53.2674 76.4773 51.1221 78.6226 51.1221 81.269V106.186C51.1221 108.832 53.2674 110.977 55.9137 110.977H80.8304C83.4768 110.977 85.6221 108.832 85.6221 106.186V81.269C85.6221 78.6226 83.4768 76.4773 80.8304 76.4773H55.9137ZM83.7054 100.039V81.269C83.7054 79.6812 82.4182 78.394 80.8304 78.394H55.9137C54.3259 78.394 53.0387 79.6812 53.0387 81.269V94.2887L59.0694 88.258C59.4437 87.8838 60.0505 87.8838 60.4247 88.258L71.2471 99.0804L76.3194 94.008C76.6937 93.6338 77.3005 93.6338 77.6747 94.008L83.7054 100.039ZM83.7054 102.749L76.9971 96.0409L71.9247 101.113C71.5505 101.488 70.9437 101.488 70.5694 101.113L59.7471 90.2909L53.0387 96.9993V106.186C53.0387 107.773 54.3259 109.061 55.9137 109.061H80.8304C82.4182 109.061 83.7054 107.773 83.7054 106.186V102.749ZM74.1221 82.2273H77.9554C79.0139 82.2273 79.8721 83.0854 79.8721 84.144V87.9773C79.8721 89.0359 79.0139 89.894 77.9554 89.894H74.1221C73.0635 89.894 72.2054 89.0359 72.2054 87.9773V84.144C72.2054 83.0854 73.0635 82.2273 74.1221 82.2273ZM74.1221 87.9773V84.144H77.9554V87.9773H74.1221Z"/>
</mask>
<path fill-rule="evenodd" clip-rule="evenodd" d="M55.9137 76.4773C53.2674 76.4773 51.1221 78.6226 51.1221 81.269V106.186C51.1221 108.832 53.2674 110.977 55.9137 110.977H80.8304C83.4768 110.977 85.6221 108.832 85.6221 106.186V81.269C85.6221 78.6226 83.4768 76.4773 80.8304 76.4773H55.9137ZM83.7054 100.039V81.269C83.7054 79.6812 82.4182 78.394 80.8304 78.394H55.9137C54.3259 78.394 53.0387 79.6812 53.0387 81.269V94.2887L59.0694 88.258C59.4437 87.8838 60.0505 87.8838 60.4247 88.258L71.2471 99.0804L76.3194 94.008C76.6937 93.6338 77.3005 93.6338 77.6747 94.008L83.7054 100.039ZM83.7054 102.749L76.9971 96.0409L71.9247 101.113C71.5505 101.488 70.9437 101.488 70.5694 101.113L59.7471 90.2909L53.0387 96.9993V106.186C53.0387 107.773 54.3259 109.061 55.9137 109.061H80.8304C82.4182 109.061 83.7054 107.773 83.7054 106.186V102.749ZM74.1221 82.2273H77.9554C79.0139 82.2273 79.8721 83.0854 79.8721 84.144V87.9773C79.8721 89.0359 79.0139 89.894 77.9554 89.894H74.1221C73.0635 89.894 72.2054 89.0359 72.2054 87.9773V84.144C72.2054 83.0854 73.0635 82.2273 74.1221 82.2273ZM74.1221 87.9773V84.144H77.9554V87.9773H74.1221Z" fill="#94A3B8"/>
<path d="M83.7054 100.039L83.4343 100.31L84.0887 100.964V100.039H83.7054ZM53.0387 94.2887H52.6554V95.2142L53.3098 94.5598L53.0387 94.2887ZM59.0694 88.258L58.7984 87.987V87.987L59.0694 88.258ZM60.4247 88.258L60.1537 88.5291V88.5291L60.4247 88.258ZM71.2471 99.0804L70.976 99.3514L71.2471 99.6225L71.5181 99.3514L71.2471 99.0804ZM76.3194 94.008L76.0484 93.737L76.3194 94.008ZM77.6747 94.008L77.9458 93.737L77.6747 94.008ZM76.9971 96.0409L77.2681 95.7699L76.9971 95.4988L76.726 95.7699L76.9971 96.0409ZM83.7054 102.749H84.0887V102.59L83.9765 102.478L83.7054 102.749ZM71.9247 101.113L72.1958 101.384L71.9247 101.113ZM70.5694 101.113L70.2984 101.384L70.5694 101.113ZM59.7471 90.2909L60.0181 90.0199L59.7471 89.7488L59.476 90.0199L59.7471 90.2909ZM53.0387 96.9993L52.7677 96.7282L52.6554 96.8405V96.9993H53.0387ZM74.1221 84.144V83.7607H73.7387V84.144H74.1221ZM74.1221 87.9773H73.7387V88.3607H74.1221V87.9773ZM77.9554 84.144H78.3387V83.7607H77.9554V84.144ZM77.9554 87.9773V88.3607H78.3387V87.9773H77.9554ZM51.5054 81.269C51.5054 78.8343 53.4791 76.8607 55.9137 76.8607V76.094C53.0557 76.094 50.7387 78.4109 50.7387 81.269H51.5054ZM51.5054 106.186V81.269H50.7387V106.186H51.5054ZM55.9137 110.594C53.4791 110.594 51.5054 108.62 51.5054 106.186H50.7387C50.7387 109.044 53.0557 111.361 55.9137 111.361V110.594ZM80.8304 110.594H55.9137V111.361H80.8304V110.594ZM85.2387 106.186C85.2387 108.62 83.2651 110.594 80.8304 110.594V111.361C83.6885 111.361 86.0054 109.044 86.0054 106.186H85.2387ZM85.2387 81.269V106.186H86.0054V81.269H85.2387ZM80.8304 76.8607C83.2651 76.8607 85.2387 78.8343 85.2387 81.269H86.0054C86.0054 78.4109 83.6885 76.094 80.8304 76.094V76.8607ZM55.9137 76.8607H80.8304V76.094H55.9137V76.8607ZM83.3221 81.269V100.039H84.0887V81.269H83.3221ZM80.8304 78.7773C82.2065 78.7773 83.3221 79.8929 83.3221 81.269H84.0887C84.0887 79.4695 82.6299 78.0107 80.8304 78.0107V78.7773ZM55.9137 78.7773H80.8304V78.0107H55.9137V78.7773ZM53.4221 81.269C53.4221 79.8929 54.5376 78.7773 55.9137 78.7773V78.0107C54.1142 78.0107 52.6554 79.4695 52.6554 81.269H53.4221ZM53.4221 94.2887V81.269H52.6554V94.2887H53.4221ZM58.7984 87.987L52.7677 94.0176L53.3098 94.5598L59.3405 88.5291L58.7984 87.987ZM60.6958 87.987C60.1718 87.463 59.3223 87.463 58.7984 87.987L59.3405 88.5291C59.565 88.3045 59.9291 88.3045 60.1537 88.5291L60.6958 87.987ZM71.5181 98.8093L60.6958 87.987L60.1537 88.5291L70.976 99.3514L71.5181 98.8093ZM76.0484 93.737L70.976 98.8093L71.5181 99.3514L76.5905 94.2791L76.0484 93.737ZM77.9458 93.737C77.4218 93.213 76.5723 93.213 76.0484 93.737L76.5905 94.2791C76.815 94.0545 77.1791 94.0545 77.4037 94.2791L77.9458 93.737ZM83.9765 99.7676L77.9458 93.737L77.4037 94.2791L83.4343 100.31L83.9765 99.7676ZM76.726 96.312L83.4343 103.02L83.9765 102.478L77.2681 95.7699L76.726 96.312ZM72.1958 101.384L77.2681 96.312L76.726 95.7699L71.6537 100.842L72.1958 101.384ZM70.2984 101.384C70.8223 101.908 71.6718 101.908 72.1958 101.384L71.6537 100.842C71.4291 101.067 71.065 101.067 70.8405 100.842L70.2984 101.384ZM59.476 90.562L70.2984 101.384L70.8405 100.842L60.0181 90.0199L59.476 90.562ZM53.3098 97.2703L60.0181 90.562L59.476 90.0199L52.7677 96.7282L53.3098 97.2703ZM53.4221 106.186V96.9993H52.6554V106.186H53.4221ZM55.9137 108.677C54.5376 108.677 53.4221 107.562 53.4221 106.186H52.6554C52.6554 107.985 54.1142 109.444 55.9137 109.444V108.677ZM80.8304 108.677H55.9137V109.444H80.8304V108.677ZM83.3221 106.186C83.3221 107.562 82.2065 108.677 80.8304 108.677V109.444C82.6299 109.444 84.0887 107.985 84.0887 106.186H83.3221ZM83.3221 102.749V106.186H84.0887V102.749H83.3221ZM77.9554 81.844H74.1221V82.6107H77.9554V81.844ZM80.2554 84.144C80.2554 82.8737 79.2257 81.844 77.9554 81.844V82.6107C78.8022 82.6107 79.4887 83.2972 79.4887 84.144H80.2554ZM80.2554 87.9773V84.144H79.4887V87.9773H80.2554ZM77.9554 90.2773C79.2257 90.2773 80.2554 89.2476 80.2554 87.9773H79.4887C79.4887 88.8242 78.8022 89.5107 77.9554 89.5107V90.2773ZM74.1221 90.2773H77.9554V89.5107H74.1221V90.2773ZM71.8221 87.9773C71.8221 89.2476 72.8518 90.2773 74.1221 90.2773V89.5107C73.2752 89.5107 72.5887 88.8242 72.5887 87.9773H71.8221ZM71.8221 84.144V87.9773H72.5887V84.144H71.8221ZM74.1221 81.844C72.8518 81.844 71.8221 82.8737 71.8221 84.144H72.5887C72.5887 83.2972 73.2752 82.6107 74.1221 82.6107V81.844ZM73.7387 84.144V87.9773H74.5054V84.144H73.7387ZM77.9554 83.7607H74.1221V84.5273H77.9554V83.7607ZM78.3387 87.9773V84.144H77.5721V87.9773H78.3387ZM74.1221 88.3607H77.9554V87.594H74.1221V88.3607Z" fill="#94A3B8" mask="url(#path-5-outside-2_1034_441)"/>
</g>
</g>
<g filter="url(#filter2_d_1034_441)">
<rect x="1.896" y="1.25134" width="122.468" height="174.282" rx="8" fill="#DFE5EC" shape-rendering="crispEdges"/>
<g opacity="0.5">
<mask id="path-8-outside-3_1034_441" maskUnits="userSpaceOnUse" x="44.646" y="70.0013" width="36" height="36" fill="black">
<rect fill="white" x="44.646" y="70.0013" width="36" height="36"/>
<path fill-rule="evenodd" clip-rule="evenodd" d="M50.4377 71.0013C47.7913 71.0013 45.646 73.1466 45.646 75.793V100.71C45.646 103.356 47.7913 105.501 50.4377 105.501H75.3543C78.0007 105.501 80.146 103.356 80.146 100.71V75.793C80.146 73.1466 78.0007 71.0013 75.3543 71.0013H50.4377ZM78.2293 94.5627V75.793C78.2293 74.2052 76.9421 72.918 75.3543 72.918H50.4377C48.8498 72.918 47.5627 74.2052 47.5627 75.793V88.8127L53.5934 82.782C53.9676 82.4078 54.5744 82.4078 54.9486 82.782L65.771 93.6044L70.8434 88.532C71.2176 88.1578 71.8244 88.1578 72.1986 88.532L78.2293 94.5627ZM78.2293 97.2733L71.521 90.565L66.4486 95.6373C66.0744 96.0116 65.4676 96.0116 65.0934 95.6373L54.271 84.815L47.5627 91.5233V100.71C47.5627 102.297 48.8498 103.585 50.4377 103.585H75.3543C76.9421 103.585 78.2293 102.297 78.2293 100.71V97.2733ZM68.646 76.7513H72.4793C73.5379 76.7513 74.396 77.6095 74.396 78.668V82.5013C74.396 83.5599 73.5379 84.418 72.4793 84.418H68.646C67.5874 84.418 66.7293 83.5599 66.7293 82.5013V78.668C66.7293 77.6095 67.5874 76.7513 68.646 76.7513ZM68.646 82.5013V78.668H72.4793V82.5013H68.646Z"/>
</mask>
<path fill-rule="evenodd" clip-rule="evenodd" d="M50.4377 71.0013C47.7913 71.0013 45.646 73.1466 45.646 75.793V100.71C45.646 103.356 47.7913 105.501 50.4377 105.501H75.3543C78.0007 105.501 80.146 103.356 80.146 100.71V75.793C80.146 73.1466 78.0007 71.0013 75.3543 71.0013H50.4377ZM78.2293 94.5627V75.793C78.2293 74.2052 76.9421 72.918 75.3543 72.918H50.4377C48.8498 72.918 47.5627 74.2052 47.5627 75.793V88.8127L53.5934 82.782C53.9676 82.4078 54.5744 82.4078 54.9486 82.782L65.771 93.6044L70.8434 88.532C71.2176 88.1578 71.8244 88.1578 72.1986 88.532L78.2293 94.5627ZM78.2293 97.2733L71.521 90.565L66.4486 95.6373C66.0744 96.0116 65.4676 96.0116 65.0934 95.6373L54.271 84.815L47.5627 91.5233V100.71C47.5627 102.297 48.8498 103.585 50.4377 103.585H75.3543C76.9421 103.585 78.2293 102.297 78.2293 100.71V97.2733ZM68.646 76.7513H72.4793C73.5379 76.7513 74.396 77.6095 74.396 78.668V82.5013C74.396 83.5599 73.5379 84.418 72.4793 84.418H68.646C67.5874 84.418 66.7293 83.5599 66.7293 82.5013V78.668C66.7293 77.6095 67.5874 76.7513 68.646 76.7513ZM68.646 82.5013V78.668H72.4793V82.5013H68.646Z" fill="#94A3B8"/>
<path d="M78.2293 94.5627L77.9583 94.8338L78.6127 95.4882V94.5627H78.2293ZM47.5627 88.8127H47.1793V89.7382L47.8337 89.0838L47.5627 88.8127ZM53.5934 82.782L53.3223 82.511V82.511L53.5934 82.782ZM54.9486 82.782L54.6776 83.0531V83.0531L54.9486 82.782ZM65.771 93.6044L65.4999 93.8754L65.771 94.1465L66.0421 93.8754L65.771 93.6044ZM70.8434 88.532L70.5723 88.261L70.8434 88.532ZM72.1986 88.532L72.4697 88.261L72.1986 88.532ZM71.521 90.565L71.7921 90.2939L71.521 90.0228L71.2499 90.2939L71.521 90.565ZM78.2293 97.2733H78.6127V97.1145L78.5004 97.0022L78.2293 97.2733ZM66.4486 95.6373L66.7197 95.9084L66.4486 95.6373ZM65.0934 95.6373L64.8223 95.9084L65.0934 95.6373ZM54.271 84.815L54.5421 84.5439L54.271 84.2729L53.9999 84.5439L54.271 84.815ZM47.5627 91.5233L47.2916 91.2522L47.1793 91.3645V91.5233H47.5627ZM68.646 78.668V78.2847H68.2627V78.668H68.646ZM68.646 82.5013H68.2627V82.8847H68.646V82.5013ZM72.4793 78.668H72.8627V78.2847H72.4793V78.668ZM72.4793 82.5013V82.8847H72.8627V82.5013H72.4793ZM46.0293 75.793C46.0293 73.3584 48.003 71.3847 50.4377 71.3847V70.618C47.5796 70.618 45.2627 72.9349 45.2627 75.793H46.0293ZM46.0293 100.71V75.793H45.2627V100.71H46.0293ZM50.4377 105.118C48.003 105.118 46.0293 103.144 46.0293 100.71H45.2627C45.2627 103.568 47.5796 105.885 50.4377 105.885V105.118ZM75.3543 105.118H50.4377V105.885H75.3543V105.118ZM79.7627 100.71C79.7627 103.144 77.789 105.118 75.3543 105.118V105.885C78.2124 105.885 80.5293 103.568 80.5293 100.71H79.7627ZM79.7627 75.793V100.71H80.5293V75.793H79.7627ZM75.3543 71.3847C77.789 71.3847 79.7627 73.3584 79.7627 75.793H80.5293C80.5293 72.9349 78.2124 70.618 75.3543 70.618V71.3847ZM50.4377 71.3847H75.3543V70.618H50.4377V71.3847ZM77.846 75.793V94.5627H78.6127V75.793H77.846ZM75.3543 73.3013C76.7304 73.3013 77.846 74.4169 77.846 75.793H78.6127C78.6127 73.9935 77.1539 72.5347 75.3543 72.5347V73.3013ZM50.4377 73.3013H75.3543V72.5347H50.4377V73.3013ZM47.946 75.793C47.946 74.4169 49.0616 73.3013 50.4377 73.3013V72.5347C48.6381 72.5347 47.1793 73.9935 47.1793 75.793H47.946ZM47.946 88.8127V75.793H47.1793V88.8127H47.946ZM53.3223 82.511L47.2916 88.5417L47.8337 89.0838L53.8644 83.0531L53.3223 82.511ZM55.2197 82.511C54.6957 81.987 53.8462 81.987 53.3223 82.511L53.8644 83.0531C54.089 82.8285 54.453 82.8285 54.6776 83.0531L55.2197 82.511ZM66.0421 93.3333L55.2197 82.511L54.6776 83.0531L65.4999 93.8754L66.0421 93.3333ZM70.5723 88.261L65.4999 93.3333L66.0421 93.8754L71.1144 88.8031L70.5723 88.261ZM72.4697 88.261C71.9457 87.737 71.0962 87.737 70.5723 88.261L71.1144 88.8031C71.339 88.5785 71.703 88.5785 71.9276 88.8031L72.4697 88.261ZM78.5004 94.2917L72.4697 88.261L71.9276 88.8031L77.9583 94.8338L78.5004 94.2917ZM71.2499 90.836L77.9583 97.5444L78.5004 97.0022L71.7921 90.2939L71.2499 90.836ZM66.7197 95.9084L71.7921 90.836L71.2499 90.2939L66.1776 95.3663L66.7197 95.9084ZM64.8223 95.9084C65.3462 96.4323 66.1957 96.4323 66.7197 95.9084L66.1776 95.3663C65.953 95.5908 65.589 95.5908 65.3644 95.3663L64.8223 95.9084ZM53.9999 85.086L64.8223 95.9084L65.3644 95.3663L54.5421 84.5439L53.9999 85.086ZM47.8337 91.7944L54.5421 85.086L53.9999 84.5439L47.2916 91.2522L47.8337 91.7944ZM47.946 100.71V91.5233H47.1793V100.71H47.946ZM50.4377 103.201C49.0616 103.201 47.946 102.086 47.946 100.71H47.1793C47.1793 102.509 48.6381 103.968 50.4377 103.968V103.201ZM75.3543 103.201H50.4377V103.968H75.3543V103.201ZM77.846 100.71C77.846 102.086 76.7304 103.201 75.3543 103.201V103.968C77.1539 103.968 78.6127 102.509 78.6127 100.71H77.846ZM77.846 97.2733V100.71H78.6127V97.2733H77.846ZM72.4793 76.368H68.646V77.1347H72.4793V76.368ZM74.7793 78.668C74.7793 77.3978 73.7496 76.368 72.4793 76.368V77.1347C73.3262 77.1347 74.0127 77.8212 74.0127 78.668H74.7793ZM74.7793 82.5013V78.668H74.0127V82.5013H74.7793ZM72.4793 84.8013C73.7496 84.8013 74.7793 83.7716 74.7793 82.5013H74.0127C74.0127 83.3482 73.3262 84.0347 72.4793 84.0347V84.8013ZM68.646 84.8013H72.4793V84.0347H68.646V84.8013ZM66.346 82.5013C66.346 83.7716 67.3757 84.8013 68.646 84.8013V84.0347C67.7992 84.0347 67.1127 83.3482 67.1127 82.5013H66.346ZM66.346 78.668V82.5013H67.1127V78.668H66.346ZM68.646 76.368C67.3757 76.368 66.346 77.3978 66.346 78.668H67.1127C67.1127 77.8212 67.7992 77.1347 68.646 77.1347V76.368ZM68.2627 78.668V82.5013H69.0293V78.668H68.2627ZM72.4793 78.2847H68.646V79.0513H72.4793V78.2847ZM72.8627 82.5013V78.668H72.096V82.5013H72.8627ZM68.646 82.8847H72.4793V82.118H68.646V82.8847Z" fill="#94A3B8" mask="url(#path-8-outside-3_1034_441)"/>
</g>
</g>
<defs>
<filter id="filter0_d_1034_441" x="11.8479" y="11.2033" width="128.469" height="180.282" filterUnits="userSpaceOnUse" color-interpolation-filters="sRGB">
<feFlood flood-opacity="0" result="BackgroundImageFix"/>
<feColorMatrix in="SourceAlpha" type="matrix" values="0 0 0 0 0 0 0 0 0 0 0 0 0 0 0 0 0 0 127 0" result="hardAlpha"/>
<feOffset dx="2" dy="2"/>
<feGaussianBlur stdDeviation="1.5"/>
<feComposite in2="hardAlpha" operator="out"/>
<feColorMatrix type="matrix" values="0 0 0 0 0 0 0 0 0 0 0 0 0 0 0 0 0 0 0.2 0"/>
<feBlend mode="normal" in2="BackgroundImageFix" result="effect1_dropShadow_1034_441"/>
<feBlend mode="normal" in="SourceGraphic" in2="effect1_dropShadow_1034_441" result="shape"/>
</filter>
<filter id="filter1_d_1034_441" x="6.37207" y="5.72733" width="128.469" height="180.282" filterUnits="userSpaceOnUse" color-interpolation-filters="sRGB">
<feFlood flood-opacity="0" result="BackgroundImageFix"/>
<feColorMatrix in="SourceAlpha" type="matrix" values="0 0 0 0 0 0 0 0 0 0 0 0 0 0 0 0 0 0 127 0" result="hardAlpha"/>
<feOffset dx="2" dy="2"/>
<feGaussianBlur stdDeviation="1.5"/>
<feComposite in2="hardAlpha" operator="out"/>
<feColorMatrix type="matrix" values="0 0 0 0 0 0 0 0 0 0 0 0 0 0 0 0 0 0 0.2 0"/>
<feBlend mode="normal" in2="BackgroundImageFix" result="effect1_dropShadow_1034_441"/>
<feBlend mode="normal" in="SourceGraphic" in2="effect1_dropShadow_1034_441" result="shape"/>
</filter>
<filter id="filter2_d_1034_441" x="0.895996" y="0.251343" width="128.469" height="180.282" filterUnits="userSpaceOnUse" color-interpolation-filters="sRGB">
<feFlood flood-opacity="0" result="BackgroundImageFix"/>
<feColorMatrix in="SourceAlpha" type="matrix" values="0 0 0 0 0 0 0 0 0 0 0 0 0 0 0 0 0 0 127 0" result="hardAlpha"/>
<feOffset dx="2" dy="2"/>
<feGaussianBlur stdDeviation="1.5"/>
<feComposite in2="hardAlpha" operator="out"/>
<feColorMatrix type="matrix" values="0 0 0 0 0 0 0 0 0 0 0 0 0 0 0 0 0 0 0.2 0"/>
<feBlend mode="normal" in2="BackgroundImageFix" result="effect1_dropShadow_1034_441"/>
<feBlend mode="normal" in="SourceGraphic" in2="effect1_dropShadow_1034_441" result="shape"/>
</filter>
</defs>
</svg>
