<svg width="130" height="185" viewBox="0 0 130 185" fill="none" xmlns="http://www.w3.org/2000/svg">
<rect width="130" height="185" rx="8" fill="#DFE5EC"/>
<g opacity="0.5">
<mask id="path-2-outside-1_804_457" maskUnits="userSpaceOnUse" x="46.75" y="74.75" width="36" height="36" fill="black">
<rect fill="white" x="46.75" y="74.75" width="36" height="36"/>
<path fill-rule="evenodd" clip-rule="evenodd" d="M52.5417 75.75C49.8953 75.75 47.75 77.8953 47.75 80.5417V105.458C47.75 108.105 49.8953 110.25 52.5417 110.25H77.4583C80.1047 110.25 82.25 108.105 82.25 105.458V80.5417C82.25 77.8953 80.1047 75.75 77.4583 75.75H52.5417ZM80.3333 99.3114V80.5417C80.3333 78.9538 79.0462 77.6667 77.4583 77.6667H52.5417C50.9538 77.6667 49.6667 78.9538 49.6667 80.5417V93.5614L55.6974 87.5307C56.0716 87.1564 56.6784 87.1564 57.0526 87.5307L67.875 98.353L72.9474 93.2807C73.3216 92.9064 73.9284 92.9064 74.3026 93.2807L80.3333 99.3114ZM80.3333 102.022L73.625 95.3136L68.5526 100.386C68.1784 100.76 67.5716 100.76 67.1974 100.386L56.375 89.5636L49.6667 96.272V105.458C49.6667 107.046 50.9538 108.333 52.5417 108.333H77.4583C79.0462 108.333 80.3333 107.046 80.3333 105.458V102.022ZM70.75 81.5H74.5833C75.6419 81.5 76.5 82.3581 76.5 83.4167V87.25C76.5 88.3085 75.6419 89.1667 74.5833 89.1667H70.75C69.6915 89.1667 68.8333 88.3085 68.8333 87.25V83.4167C68.8333 82.3581 69.6915 81.5 70.75 81.5ZM70.75 87.25V83.4167H74.5833V87.25H70.75Z"/>
</mask>
<path fill-rule="evenodd" clip-rule="evenodd" d="M52.5417 75.75C49.8953 75.75 47.75 77.8953 47.75 80.5417V105.458C47.75 108.105 49.8953 110.25 52.5417 110.25H77.4583C80.1047 110.25 82.25 108.105 82.25 105.458V80.5417C82.25 77.8953 80.1047 75.75 77.4583 75.75H52.5417ZM80.3333 99.3114V80.5417C80.3333 78.9538 79.0462 77.6667 77.4583 77.6667H52.5417C50.9538 77.6667 49.6667 78.9538 49.6667 80.5417V93.5614L55.6974 87.5307C56.0716 87.1564 56.6784 87.1564 57.0526 87.5307L67.875 98.353L72.9474 93.2807C73.3216 92.9064 73.9284 92.9064 74.3026 93.2807L80.3333 99.3114ZM80.3333 102.022L73.625 95.3136L68.5526 100.386C68.1784 100.76 67.5716 100.76 67.1974 100.386L56.375 89.5636L49.6667 96.272V105.458C49.6667 107.046 50.9538 108.333 52.5417 108.333H77.4583C79.0462 108.333 80.3333 107.046 80.3333 105.458V102.022ZM70.75 81.5H74.5833C75.6419 81.5 76.5 82.3581 76.5 83.4167V87.25C76.5 88.3085 75.6419 89.1667 74.5833 89.1667H70.75C69.6915 89.1667 68.8333 88.3085 68.8333 87.25V83.4167C68.8333 82.3581 69.6915 81.5 70.75 81.5ZM70.75 87.25V83.4167H74.5833V87.25H70.75Z" fill="#94A3B8"/>
<path d="M80.3333 99.3114L80.0623 99.5824L80.7167 100.237V99.3114H80.3333ZM49.6667 93.5614H49.2833V94.4868L49.9377 93.8324L49.6667 93.5614ZM55.6974 87.5307L55.4263 87.2596V87.2596L55.6974 87.5307ZM57.0526 87.5307L56.7816 87.8017V87.8017L57.0526 87.5307ZM67.875 98.353L67.6039 98.6241L67.875 98.8952L68.1461 98.6241L67.875 98.353ZM72.9474 93.2807L72.6763 93.0096L72.9474 93.2807ZM74.3026 93.2807L74.5737 93.0096L74.3026 93.2807ZM73.625 95.3136L73.8961 95.0426L73.625 94.7715L73.3539 95.0426L73.625 95.3136ZM80.3333 102.022H80.7167V101.863L80.6044 101.751L80.3333 102.022ZM68.5526 100.386L68.8237 100.657L68.5526 100.386ZM67.1974 100.386L66.9263 100.657L67.1974 100.386ZM56.375 89.5636L56.6461 89.2926L56.375 89.0215L56.1039 89.2926L56.375 89.5636ZM49.6667 96.272L49.3956 96.0009L49.2833 96.1132V96.272H49.6667ZM70.75 83.4167V83.0333H70.3667V83.4167H70.75ZM70.75 87.25H70.3667V87.6333H70.75V87.25ZM74.5833 83.4167H74.9667V83.0333H74.5833V83.4167ZM74.5833 87.25V87.6333H74.9667V87.25H74.5833ZM48.1333 80.5417C48.1333 78.107 50.107 76.1333 52.5417 76.1333V75.3667C49.6836 75.3667 47.3667 77.6836 47.3667 80.5417H48.1333ZM48.1333 105.458V80.5417H47.3667V105.458H48.1333ZM52.5417 109.867C50.107 109.867 48.1333 107.893 48.1333 105.458H47.3667C47.3667 108.316 49.6836 110.633 52.5417 110.633V109.867ZM77.4583 109.867H52.5417V110.633H77.4583V109.867ZM81.8667 105.458C81.8667 107.893 79.893 109.867 77.4583 109.867V110.633C80.3164 110.633 82.6333 108.316 82.6333 105.458H81.8667ZM81.8667 80.5417V105.458H82.6333V80.5417H81.8667ZM77.4583 76.1333C79.893 76.1333 81.8667 78.107 81.8667 80.5417H82.6333C82.6333 77.6836 80.3164 75.3667 77.4583 75.3667V76.1333ZM52.5417 76.1333H77.4583V75.3667H52.5417V76.1333ZM79.95 80.5417V99.3114H80.7167V80.5417H79.95ZM77.4583 78.05C78.8344 78.05 79.95 79.1656 79.95 80.5417H80.7167C80.7167 78.7421 79.2579 77.2833 77.4583 77.2833V78.05ZM52.5417 78.05H77.4583V77.2833H52.5417V78.05ZM50.05 80.5417C50.05 79.1656 51.1656 78.05 52.5417 78.05V77.2833C50.7421 77.2833 49.2833 78.7421 49.2833 80.5417H50.05ZM50.05 93.5614V80.5417H49.2833V93.5614H50.05ZM55.4263 87.2596L49.3956 93.2903L49.9377 93.8324L55.9684 87.8017L55.4263 87.2596ZM57.3237 87.2596C56.7997 86.7357 55.9503 86.7357 55.4263 87.2596L55.9684 87.8017C56.193 87.5772 56.557 87.5772 56.7816 87.8017L57.3237 87.2596ZM68.1461 98.082L57.3237 87.2596L56.7816 87.8017L67.6039 98.6241L68.1461 98.082ZM72.6763 93.0096L67.6039 98.082L68.1461 98.6241L73.2184 93.5517L72.6763 93.0096ZM74.5737 93.0096C74.0497 92.4857 73.2003 92.4857 72.6763 93.0096L73.2184 93.5517C73.443 93.3272 73.807 93.3272 74.0316 93.5517L74.5737 93.0096ZM80.6044 99.0403L74.5737 93.0096L74.0316 93.5517L80.0623 99.5824L80.6044 99.0403ZM73.3539 95.5847L80.0623 102.293L80.6044 101.751L73.8961 95.0426L73.3539 95.5847ZM68.8237 100.657L73.8961 95.5847L73.3539 95.0426L68.2816 100.115L68.8237 100.657ZM66.9263 100.657C67.4503 101.181 68.2997 101.181 68.8237 100.657L68.2816 100.115C68.057 100.339 67.693 100.339 67.4684 100.115L66.9263 100.657ZM56.1039 89.8347L66.9263 100.657L67.4684 100.115L56.6461 89.2926L56.1039 89.8347ZM49.9377 96.543L56.6461 89.8347L56.1039 89.2926L49.3956 96.0009L49.9377 96.543ZM50.05 105.458V96.272H49.2833V105.458H50.05ZM52.5417 107.95C51.1656 107.95 50.05 106.834 50.05 105.458H49.2833C49.2833 107.258 50.7421 108.717 52.5417 108.717V107.95ZM77.4583 107.95H52.5417V108.717H77.4583V107.95ZM79.95 105.458C79.95 106.834 78.8344 107.95 77.4583 107.95V108.717C79.2579 108.717 80.7167 107.258 80.7167 105.458H79.95ZM79.95 102.022V105.458H80.7167V102.022H79.95ZM74.5833 81.1167H70.75V81.8833H74.5833V81.1167ZM76.8833 83.4167C76.8833 82.1464 75.8536 81.1167 74.5833 81.1167V81.8833C75.4302 81.8833 76.1167 82.5698 76.1167 83.4167H76.8833ZM76.8833 87.25V83.4167H76.1167V87.25H76.8833ZM74.5833 89.55C75.8536 89.55 76.8833 88.5203 76.8833 87.25H76.1167C76.1167 88.0968 75.4302 88.7833 74.5833 88.7833V89.55ZM70.75 89.55H74.5833V88.7833H70.75V89.55ZM68.45 87.25C68.45 88.5203 69.4797 89.55 70.75 89.55V88.7833C69.9032 88.7833 69.2167 88.0968 69.2167 87.25H68.45ZM68.45 83.4167V87.25H69.2167V83.4167H68.45ZM70.75 81.1167C69.4797 81.1167 68.45 82.1464 68.45 83.4167H69.2167C69.2167 82.5698 69.9032 81.8833 70.75 81.8833V81.1167ZM70.3667 83.4167V87.25H71.1333V83.4167H70.3667ZM74.5833 83.0333H70.75V83.8H74.5833V83.0333ZM74.9667 87.25V83.4167H74.2V87.25H74.9667ZM70.75 87.6333H74.5833V86.8667H70.75V87.6333Z" fill="#94A3B8" mask="url(#path-2-outside-1_804_457)"/>
</g>
</svg>
