<svg width="29" height="28" viewBox="0 0 29 28" fill="none" xmlns="http://www.w3.org/2000/svg">
<mask id="mask0_8_638" style="mask-type:luminance" maskUnits="userSpaceOnUse" x="3" y="1" width="25" height="26">
<path fill-rule="evenodd" clip-rule="evenodd" d="M3.16699 1.16699H27.0834V26.2562H3.16699V1.16699Z" fill="white"/>
</mask>
<g mask="url(#mask0_8_638)">
<path fill-rule="evenodd" clip-rule="evenodd" d="M16.8368 17.8399C18.2415 17.8399 19.3848 18.975 19.3848 20.3704V23.959C19.3848 24.2589 19.6252 24.4992 19.9332 24.5062H22.1568C23.9092 24.5062 25.3337 23.0992 25.3337 21.3702V11.1922C25.3255 10.5972 25.042 10.0372 24.5555 9.66504L16.8637 3.53071C15.8312 2.71287 14.3868 2.71287 13.3508 3.53304L5.71149 9.66271C5.20633 10.0465 4.92283 10.6065 4.91699 11.212V21.3702C4.91699 23.0992 6.34149 24.5062 8.09383 24.5062H10.3385C10.6547 24.5062 10.9113 24.2554 10.9113 23.9474C10.9113 23.8797 10.9195 23.812 10.9335 23.7479V20.3704C10.9335 18.9832 12.0698 17.8492 13.464 17.8399H16.8368ZM22.1568 26.2562H19.9122C18.6265 26.2259 17.6348 25.2167 17.6348 23.959V20.3704C17.6348 19.9399 17.2767 19.5899 16.8368 19.5899H13.4698C13.0393 19.5922 12.6835 19.9434 12.6835 20.3704V23.9474C12.6835 24.0349 12.6718 24.1189 12.6473 24.1982C12.5213 25.3532 11.5343 26.2562 10.3385 26.2562H8.09383C5.37666 26.2562 3.16699 24.064 3.16699 21.3702V11.2039C3.17866 10.0442 3.71299 8.98254 4.63583 8.28371L12.26 2.16454C13.9388 0.83454 16.278 0.83454 17.9533 2.16221L25.6323 8.28721C26.5342 8.97437 27.0685 10.0337 27.0837 11.1794V21.3702C27.0837 24.064 24.874 26.2562 22.1568 26.2562Z" fill="#61646B"/>
</g>
</svg>
